<svg xmlns="http://www.w3.org/2000/svg" viewBox="0 0 1200 800" width="1200" height="800">
  <!-- Definitions for Gradients, Shadows, and Markers -->
  <defs>
    <linearGradient id="bg-gradient" x1="0%" y1="0%" x2="100%" y2="100%">
      <stop offset="0%" stop-color="#080F1F" />
      <stop offset="100%" stop-color="#0B1426" />
    </linearGradient>
    
    <linearGradient id="box-gradient" x1="0%" y1="0%" x2="0%" y2="100%">
      <stop offset="0%" stop-color="#152036" />
      <stop offset="100%" stop-color="#0F172A" />
    </linearGradient>

    <linearGradient id="warm-gradient" x1="0%" y1="0%" x2="100%" y2="100%">
      <stop offset="0%" stop-color="#F59E0B" />
      <stop offset="100%" stop-color="#EA580C" />
    </linearGradient>

    <linearGradient id="cool-gradient" x1="0%" y1="0%" x2="100%" y2="100%">
      <stop offset="0%" stop-color="#3B82F6" />
      <stop offset="100%" stop-color="#4F46E5" />
    </linearGradient>

    <filter id="shadow" x="-5%" y="-5%" width="110%" height="110%">
      <feDropShadow dx="0" dy="4" stdDeviation="6" flood-color="#000000" flood-opacity="0.4" />
    </filter>

    <filter id="glow-warm" x="-20%" y="-20%" width="140%" height="140%">
      <feGaussianBlur stdDeviation="4" result="blur" />
      <feComposite in="SourceGraphic" in2="blur" operator="over" />
    </filter>

    <marker id="arrow-warm" viewBox="0 0 10 10" refX="9" refY="5" markerWidth="6" markerHeight="6" orient="auto">
      <path d="M 0 0 L 10 5 L 0 10 z" fill="#F59E0B" />
    </marker>

    <marker id="arrow-cool" viewBox="0 0 10 10" refX="9" refY="5" markerWidth="6" markerHeight="6" orient="auto">
      <path d="M 0 0 L 10 5 L 0 10 z" fill="#3B82F6" />
    </marker>
    
    <marker id="arrow-ring" viewBox="0 0 10 10" refX="5" refY="5" markerWidth="5" markerHeight="5" orient="auto">
      <path d="M 0 0 L 10 5 L 0 10 z" fill="#64748B" />
    </marker>
  </defs>

  <!-- Background -->
  <rect width="1200" height="800" fill="url(#bg-gradient)" />
  
  <!-- Subtle Background Grid -->
  <g stroke="#1E2D4A" stroke-width="1" opacity="0.3">
    <line x1="0" y1="200" x2="1200" y2="200" />
    <line x1="0" y1="400" x2="1200" y2="400" />
    <line x1="0" y1="600" x2="1200" y2="600" />
    <line x1="300" y1="0" x2="300" y2="800" />
    <line x1="600" y1="0" x2="600" y2="800" />
    <line x1="900" y1="0" x2="900" y2="800" />
  </g>

  <!-- Header & Core Insight -->
  <text x="30" y="55" font-family="system-ui, -apple-system, sans-serif" font-size="28" font-weight="bold" fill="#F8FAFC">RUFLO SWARM COORDINATION</text>
  <text x="30" y="85" font-family="system-ui, -apple-system, sans-serif" font-size="15" fill="#94A3B8">Enterprise-grade orchestration of 60+ specialized AI agents. Unlike simple prompt chains, Ruflo dynamically structures</text>
  <text x="30" y="105" font-family="system-ui, -apple-system, sans-serif" font-size="15" fill="#94A3B8">agents into optimal topologies and uses distributed consensus to guarantee code quality and system reliability.</text>

  <!-- ========================================== -->
  <!-- TOP SECTION: SWARM TOPOLOGIES              -->
  <!-- ========================================== -->
  <rect x="30" y="130" width="1140" height="330" rx="16" fill="url(#box-gradient)" stroke="#1E2D4A" stroke-width="2" filter="url(#shadow)" />
  
  <text x="60" y="165" font-family="system-ui, -apple-system, sans-serif" font-size="18" font-weight="bold" fill="#F8FAFC">SWARM TOPOLOGIES (5 TYPES)</text>
  <text x="60" y="188" font-family="system-ui, -apple-system, sans-serif" font-size="14" fill="#94A3B8">Dynamic agent organization structures optimized for specific computational task profiles.</text>

  <!-- Topology 1: Hierarchical -->
  <g transform="translate(50, 210)">
    <rect x="0" y="0" width="200" height="230" rx="12" fill="#111C35" stroke="#1E2D4A" stroke-width="1" />
    <!-- Network Diagram -->
    <g stroke="#475569" stroke-width="1.5">
      <line x1="100" y1="30" x2="60" y2="65" />
      <line x1="100" y1="30" x2="140" y2="65" />
      <line x1="60" y1="65" x2="40" y2="100" />
      <line x1="60" y1="65" x2="80" y2="100" />
      <line x1="140" y1="65" x2="120" y2="100" />
      <line x1="140" y1="65" x2="160" y2="100" />
    </g>
    <circle cx="100" cy="30" r="9" fill="url(#warm-gradient)" filter="url(#glow-warm)" />
    <circle cx="60" cy="65" r="7" fill="url(#cool-gradient)" />
    <circle cx="140" cy="65" r="7" fill="url(#cool-gradient)" />
    <circle cx="40" cy="100" r="5" fill="#94A3B8" />
    <circle cx="80" cy="100" r="5" fill="#94A3B8" />
    <circle cx="120" cy="100" r="5" fill="#94A3B8" />
    <circle cx="160" cy="100" r="5" fill="#94A3B8" />
    <!-- Text -->
    <text x="100" y="160" font-family="system-ui, -apple-system, sans-serif" font-size="16" font-weight="bold" fill="#F8FAFC" text-anchor="middle">Hierarchical</text>
    <text x="100" y="185" font-family="system-ui, -apple-system, sans-serif" font-size="13" fill="#94A3B8" text-anchor="middle">Queen delegates to specialists</text>
    <text x="100" y="205" font-family="system-ui, -apple-system, sans-serif" font-size="13" fill="#64748B" text-anchor="middle">Best for defined decomposition</text>
  </g>

  <!-- Topology 2: Mesh -->
  <g transform="translate(275, 210)">
    <rect x="0" y="0" width="200" height="230" rx="12" fill="#111C35" stroke="#1E2D4A" stroke-width="1" />
    <!-- Network Diagram -->
    <g stroke="#475569" stroke-width="1.5">
      <!-- Perimeter -->
      <path d="M100,25 L133,49 L120,88 L80,88 L67,49 Z" fill="none" />
      <!-- Star inner -->
      <path d="M100,25 L120,88 L67,49 L133,49 L80,88 Z" fill="none" />
    </g>
    <circle cx="100" cy="25" r="7" fill="url(#cool-gradient)" />
    <circle cx="133" cy="49" r="7" fill="url(#cool-gradient)" />
    <circle cx="120" cy="88" r="7" fill="url(#cool-gradient)" />
    <circle cx="80" cy="88" r="7" fill="url(#cool-gradient)" />
    <circle cx="67" cy="49" r="7" fill="url(#cool-gradient)" />
    <!-- Text -->
    <text x="100" y="160" font-family="system-ui, -apple-system, sans-serif" font-size="16" font-weight="bold" fill="#F8FAFC" text-anchor="middle">Mesh</text>
    <text x="100" y="185" font-family="system-ui, -apple-system, sans-serif" font-size="13" fill="#94A3B8" text-anchor="middle">Every agent connects to all</text>
    <text x="100" y="205" font-family="system-ui, -apple-system, sans-serif" font-size="13" fill="#64748B" text-anchor="middle">Best for exploratory research</text>
  </g>

  <!-- Topology 3: Ring -->
  <g transform="translate(500, 210)">
    <rect x="0" y="0" width="200" height="230" rx="12" fill="#111C35" stroke="#1E2D4A" stroke-width="1" />
    <!-- Network Diagram -->
    <g stroke="#475569" stroke-width="2" fill="none">
      <path d="M100,25 L133,49" marker-end="url(#arrow-ring)" />
      <path d="M133,49 L120,88" marker-end="url(#arrow-ring)" />
      <path d="M120,88 L80,88" marker-end="url(#arrow-ring)" />
      <path d="M80,88 L67,49" marker-end="url(#arrow-ring)" />
      <path d="M67,49 L100,25" marker-end="url(#arrow-ring)" />
      <!-- Central rotation arrow -->
      <path d="M 90 55 A 12 12 0 1 1 90 70" stroke="#F59E0B" stroke-width="2" marker-end="url(#arrow-warm)" />
    </g>
    <circle cx="100" cy="25" r="7" fill="#94A3B8" />
    <circle cx="133" cy="49" r="7" fill="#94A3B8" />
    <circle cx="120" cy="88" r="7" fill="#94A3B8" />
    <circle cx="80" cy="88" r="7" fill="#94A3B8" />
    <circle cx="67" cy="49" r="7" fill="#94A3B8" />
    <!-- Text -->
    <text x="100" y="160" font-family="system-ui, -apple-system, sans-serif" font-size="16" font-weight="bold" fill="#F8FAFC" text-anchor="middle">Ring</text>
    <text x="100" y="185" font-family="system-ui, -apple-system, sans-serif" font-size="13" fill="#94A3B8" text-anchor="middle">Sequential work passing</text>
    <text x="100" y="205" font-family="system-ui, -apple-system, sans-serif" font-size="13" fill="#64748B" text-anchor="middle">Best for pipeline processing</text>
  </g>

  <!-- Topology 4: Star -->
  <g transform="translate(725, 210)">
    <rect x="0" y="0" width="200" height="230" rx="12" fill="#111C35" stroke="#1E2D4A" stroke-width="1" />
    <!-- Network Diagram -->
    <g stroke="#475569" stroke-width="1.5">
      <line x1="100" y1="60" x2="100" y2="20" />
      <line x1="100" y1="60" x2="138" y2="45" />
      <line x1="100" y1="60" x2="125" y2="90" />
      <line x1="100" y1="60" x2="75" y2="90" />
      <line x1="100" y1="60" x2="62" y2="45" />
    </g>
    <circle cx="100" cy="60" r="9" fill="url(#warm-gradient)" filter="url(#glow-warm)" />
    <circle cx="100" cy="20" r="6" fill="#94A3B8" />
    <circle cx="138" cy="45" r="6" fill="#94A3B8" />
    <circle cx="125" cy="90" r="6" fill="#94A3B8" />
    <circle cx="75" cy="90" r="6" fill="#94A3B8" />
    <circle cx="62" cy="45" r="6" fill="#94A3B8" />
    <!-- Text -->
    <text x="100" y="160" font-family="system-ui, -apple-system, sans-serif" font-size="16" font-weight="bold" fill="#F8FAFC" text-anchor="middle">Star</text>
    <text x="100" y="185" font-family="system-ui, -apple-system, sans-serif" font-size="13" fill="#94A3B8" text-anchor="middle">One hub, isolated workers</text>
    <text x="100" y="205" font-family="system-ui, -apple-system, sans-serif" font-size="13" fill="#64748B" text-anchor="middle">Best for parallel independent tasks</text>
  </g>

  <!-- Topology 5: Custom -->
  <g transform="translate(950, 210)">
    <rect x="0" y="0" width="200" height="230" rx="12" fill="#111C35" stroke="#1E2D4A" stroke-width="1" />
    <!-- Network Diagram -->
    <g stroke="#475569" stroke-width="1.5">
      <line x1="100" y1="60" x2="60" y2="40" />
      <line x1="60" y1="40" x2="40" y2="70" />
      <line x1="100" y1="60" x2="140" y2="40" />
      <line x1="140" y1="40" x2="160" y2="70" />
      <line x1="160" y1="70" x2="120" y2="80" />
      <line x1="120" y1="80" x2="140" y2="40" />
    </g>
    <circle cx="100" cy="60" r="8" fill="url(#cool-gradient)" />
    <circle cx="60" cy="40" r="6" fill="#94A3B8" />
    <circle cx="40" cy="70" r="6" fill="#94A3B8" />
    <circle cx="140" cy="40" r="6" fill="#F59E0B" />
    <circle cx="160" cy="70" r="6" fill="#94A3B8" />
    <circle cx="120" cy="80" r="6" fill="#94A3B8" />
    <!-- Text -->
    <text x="100" y="160" font-family="system-ui, -apple-system, sans-serif" font-size="16" font-weight="bold" fill="#F8FAFC" text-anchor="middle">Custom</text>
    <text x="100" y="185" font-family="system-ui, -apple-system, sans-serif" font-size="13" fill="#94A3B8" text-anchor="middle">User-defined dynamic routing</text>
    <text x="100" y="205" font-family="system-ui, -apple-system, sans-serif" font-size="13" fill="#64748B" text-anchor="middle">Best for specialized workflows</text>
  </g>


  <!-- ========================================== -->
  <!-- FLOW ARROWS (Between Sections)             -->
  <!-- ========================================== -->
  
  <!-- Arrow 1: Agents -> Topologies -->
  <g transform="translate(0, 0)">
    <line x1="960" y1="505" x2="960" y2="468" stroke="#F59E0B" stroke-width="3" marker-end="url(#arrow-warm)" />
    <rect x="975" y="474" width="200" height="24" rx="4" fill="#0B1426" opacity="0.8" />
    <text x="980" y="490" font-family="system-ui, -apple-system, sans-serif" font-size="13" font-weight="bold" fill="#F59E0B">1. Agents assigned to topology</text>
  </g>

  <!-- Arrow 2: Topologies -> Consensus -->
  <g transform="translate(0, 0)">
    <line x1="380" y1="465" x2="380" y2="502" stroke="#3B82F6" stroke-width="3" marker-end="url(#arrow-cool)" />
    <rect x="395" y="474" width="180" height="24" rx="4" fill="#0B1426" opacity="0.8" />
    <text x="400" y="490" font-family="system-ui, -apple-system, sans-serif" font-size="13" font-weight="bold" fill="#3B82F6">2. Swarm syncs &amp; votes on state</text>
  </g>


  <!-- ========================================== -->
  <!-- BOTTOM LEFT: CONSENSUS MECHANISMS          -->
  <!-- ========================================== -->
  <rect x="30" y="510" width="700" height="260" rx="16" fill="url(#box-gradient)" stroke="#1E2D4A" stroke-width="2" filter="url(#shadow)" />
  
  <text x="60" y="545" font-family="system-ui, -apple-system, sans-serif" font-size="18" font-weight="bold" fill="#F8FAFC">DISTRIBUTED CONSENSUS MECHANISMS</text>
  <text x="60" y="568" font-family="system-ui, -apple-system, sans-serif" font-size="14" fill="#94A3B8">Protocols used by the agent swarm to agree on task state, detect failures, and guarantee output quality.</text>

  <!-- Consensus 1: Raft -->
  <g transform="translate(55, 590)">
    <rect x="0" y="0" width="200" height="160" rx="12" fill="#111C35" stroke="#1E2D4A" stroke-width="1" />
    <!-- Graphic -->
    <circle cx="100" cy="25" r="9" fill="url(#warm-gradient)" filter="url(#glow-warm)" />
    <circle cx="60" cy="65" r="7" fill="url(#cool-gradient)" />
    <circle cx="100" cy="65" r="7" fill="url(#cool-gradient)" />
    <circle cx="140" cy="65" r="7" fill="url(#cool-gradient)" />
    <g stroke="#F59E0B" stroke-width="2" stroke-dasharray="3,3">
      <line x1="95" y1="35" x2="65" y2="55" marker-end="url(#arrow-warm)" />
      <line x1="100" y1="35" x2="100" y2="55" marker-end="url(#arrow-warm)" />
      <line x1="105" y1="35" x2="135" y2="55" marker-end="url(#arrow-warm)" />
    </g>
    <!-- Text -->
    <text x="100" y="105" font-family="system-ui, -apple-system, sans-serif" font-size="16" font-weight="bold" fill="#F8FAFC" text-anchor="middle">Raft Consensus</text>
    <text x="100" y="130" font-family="system-ui, -apple-system, sans-serif" font-size="13" fill="#94A3B8" text-anchor="middle">Leader election &amp; log sync</text>
    <text x="100" y="148" font-family="system-ui, -apple-system, sans-serif" font-size="13" fill="#64748B" text-anchor="middle">Fast, consistent task assignment</text>
  </g>

  <!-- Consensus 2: Byzantine -->
  <g transform="translate(280, 590)">
    <rect x="0" y="0" width="200" height="160" rx="12" fill="#111C35" stroke="#1E2D4A" stroke-width="1" />
    <!-- Graphic -->
    <g stroke="#475569" stroke-width="1.5">
      <line x1="70" y1="25" x2="130" y2="25" />
      <line x1="70" y1="25" x2="70" y2="65" />
      <line x1="70" y1="65" x2="130" y2="65" />
      <line x1="130" y1="25" x2="130" y2="65" />
      <line x1="70" y1="25" x2="130" y2="65" />
      <line x1="130" y1="25" x2="70" y2="65" />
    </g>
    <circle cx="70" cy="25" r="7" fill="url(#cool-gradient)" />
    <circle cx="130" cy="25" r="7" fill="url(#cool-gradient)" />
    <circle cx="70" cy="65" r="7" fill="url(#cool-gradient)" />
    <circle cx="130" cy="65" r="7" fill="#EF4444" /> <!-- Faulty node -->
    
    <!-- Checkmarks & X -->
    <path d="M 60 20 L 64 24 L 70 16" fill="none" stroke="#10B981" stroke-width="2" />
    <path d="M 140 20 L 144 24 L 150 16" fill="none" stroke="#10B981" stroke-width="2" />
    <path d="M 60 60 L 64 64 L 70 56" fill="none" stroke="#10B981" stroke-width="2" />
    <path d="M 140 56 L 148 64 M 148 56 L 140 64" fill="none" stroke="#EF4444" stroke-width="2" />
    
    <!-- Text -->
    <text x="100" y="105" font-family="system-ui, -apple-system, sans-serif" font-size="16" font-weight="bold" fill="#F8FAFC" text-anchor="middle">Byzantine Tolerance</text>
    <text x="100" y="130" font-family="system-ui, -apple-system, sans-serif" font-size="13" fill="#94A3B8" text-anchor="middle">Tolerates faulty/malicious agents</text>
    <text x="100" y="148" font-family="system-ui, -apple-system, sans-serif" font-size="13" fill="#64748B" text-anchor="middle">Critical for code quality decisions</text>
  </g>

  <!-- Consensus 3: Gossip -->
  <g transform="translate(505, 590)">
    <rect x="0" y="0" width="200" height="160" rx="12" fill="#111C35" stroke="#1E2D4A" stroke-width="1" />
    <!-- Graphic -->
    <circle cx="70" cy="30" r="6" fill="url(#cool-gradient)" />
    <circle cx="130" cy="20" r="6" fill="url(#cool-gradient)" />
    <circle cx="90" cy="70" r="6" fill="url(#cool-gradient)" />
    <circle cx="140" cy="60" r="6" fill="url(#cool-gradient)" />
    <!-- Epidemic Waves -->
    <g stroke="#3B82F6" stroke-width="1.5" fill="none" opacity="0.6">
      <path d="M 78 22 A 12 12 0 0 1 82 38" />
      <path d="M 84 16 A 20 20 0 0 1 90 44" />
      <path d="M 122 68 A 12 12 0 0 1 138 72" />
      <path d="M 116 74 A 20 20 0 0 1 144 80" />
    </g>
    <!-- Text -->
    <text x="100" y="105" font-family="system-ui, -apple-system, sans-serif" font-size="16" font-weight="bold" fill="#F8FAFC" text-anchor="middle">Gossip Protocol</text>
    <text x="100" y="130" font-family="system-ui, -apple-system, sans-serif" font-size="13" fill="#94A3B8" text-anchor="middle">Epidemic-style info spreading</text>
    <text x="100" y="148" font-family="system-ui, -apple-system, sans-serif" font-size="13" fill="#64748B" text-anchor="middle">Status updates &amp; load balancing</text>
  </g>


  <!-- ========================================== -->
  <!-- BOTTOM RIGHT: AGENT WORKFORCE              -->
  <!-- ========================================== -->
  <rect x="750" y="510" width="420" height="260" rx="16" fill="url(#box-gradient)" stroke="#1E2D4A" stroke-width="2" filter="url(#shadow)" />
  
  <text x="780" y="545" font-family="system-ui, -apple-system, sans-serif" font-size="18" font-weight="bold" fill="#F8FAFC">SPECIALIZED AGENT POOL</text>
  <text x="780" y="568" font-family="system-ui, -apple-system, sans-serif" font-size="14" fill="#94A3B8">Diverse roles with unique prompts, tools, and quality standards.</text>

  <!-- Agent Grid -->
  <g transform="translate(780, 590)">
    <!-- Row 1 -->
    <rect x="0" y="0" width="170" height="26" rx="6" fill="#1E2D4A" />
    <circle cx="14" cy="13" r="4" fill="#F59E0B" />
    <text x="26" y="18" font-family="system-ui, -apple-system, sans-serif" font-size="13" font-weight="bold" fill="#E2E8F0">System Architect</text>

    <rect x="190" y="0" width="170" height="26" rx="6" fill="#1E2D4A" />
    <circle cx="204" cy="13" r="4" fill="#3B82F6" />
    <text x="216" y="18" font-family="system-ui, -apple-system, sans-serif" font-size="13" font-weight="bold" fill="#E2E8F0">Backend Developer</text>

    <!-- Row 2 -->
    <rect x="0" y="34" width="170" height="26" rx="6" fill="#1E2D4A" />
    <circle cx="14" cy="47" r="4" fill="#3B82F6" />
    <text x="26" y="52" font-family="system-ui, -apple-system, sans-serif" font-size="13" font-weight="bold" fill="#E2E8F0">Frontend Developer</text>

    <rect x="190" y="34" width="170" height="26" rx="6" fill="#1E2D4A" />
    <circle cx="204" cy="47" r="4" fill="#10B981" />
    <text x="216" y="52" font-family="system-ui, -apple-system, sans-serif" font-size="13" font-weight="bold" fill="#E2E8F0">Test Engineer</text>

    <!-- Row 3 -->
    <rect x="0" y="68" width="170" height="26" rx="6" fill="#1E2D4A" />
    <circle cx="14" cy="81" r="4" fill="#EF4444" />
    <text x="26" y="86" font-family="system-ui, -apple-system, sans-serif" font-size="13" font-weight="bold" fill="#E2E8F0">Security Auditor</text>

    <rect x="190" y="68" width="170" height="26" rx="6" fill="#1E2D4A" />
    <circle cx="204" cy="81" r="4" fill="#8B5CF6" />
    <text x="216" y="86" font-family="system-ui, -apple-system, sans-serif" font-size="13" font-weight="bold" fill="#E2E8F0">Performance Engineer</text>

    <!-- Row 4 -->
    <rect x="0" y="102" width="170" height="26" rx="6" fill="#1E2D4A" />
    <circle cx="14" cy="115" r="4" fill="#06B6D4" />
    <text x="26" y="120" font-family="system-ui, -apple-system, sans-serif" font-size="13" font-weight="bold" fill="#E2E8F0">DevOps Specialist</text>

    <rect x="190" y="102" width="170" height="26" rx="6" fill="#1E2D4A" />
    <circle cx="204" cy="115" r="4" fill="#F472B6" />
    <text x="216" y="120" font-family="system-ui, -apple-system, sans-serif" font-size="13" font-weight="bold" fill="#E2E8F0">Documentation Writer</text>
  </g>

  <!-- Shared Context & Tools -->
  <rect x="780" y="730" width="360" height="26" rx="4" fill="none" stroke="#475569" stroke-dasharray="4,4" />
  <text x="960" y="748" font-family="system-ui, -apple-system, sans-serif" font-size="13" fill="#94A3B8" text-anchor="middle">Shared Tools: Vector DB, CI/CD APIs, Code Interpreters</text>

</svg>