<svg xmlns="http://www.w3.org/2000/svg" viewBox="0 0 720 680" width="720" height="680">
  <defs>
    <style>
      .folder { fill: #F59E0B; }
      .file { fill: #94a3b8; }
      .label { font-family: system-ui, -apple-system, 'Segoe UI', sans-serif; font-size: 13px; fill: #e2e8f0; }
      .desc { font-family: system-ui, -apple-system, 'Segoe UI', sans-serif; font-size: 11px; fill: #64748b; }
      .line { stroke: #334155; stroke-width: 1.5; fill: none; }
      .bg { fill: #0f172a; }
      .header { font-family: system-ui, -apple-system, 'Segoe UI', sans-serif; font-size: 16px; font-weight: 700; fill: #f8fafc; }
    </style>
  </defs>
  <rect class="bg" width="720" height="680" rx="8"/>

  <text class="header" x="24" y="32">Project Structure</text>

  <!-- agents/ -->
  <rect class="folder" x="24" y="48" width="12" height="12" rx="2"/>
  <text class="label" x="42" y="59">agents/</text>

  <line class="line" x1="30" y1="64" x2="30" y2="252"/>

  <line class="line" x1="30" y1="80" x2="54" y2="80"/>
  <rect class="file" x="56" y="74" width="10" height="10" rx="1"/>
  <text class="label" x="72" y="83">planner_agent.py</text>
  <text class="desc" x="260" y="83">Visual metaphor discovery + description</text>

  <line class="line" x1="30" y1="104" x2="54" y2="104"/>
  <rect class="file" x="56" y="98" width="10" height="10" rx="1"/>
  <text class="label" x="72" y="107">stylist_agent.py</text>
  <text class="desc" x="260" y="107">Metaphor-preserving style refinement</text>

  <line class="line" x1="30" y1="128" x2="54" y2="128"/>
  <rect class="file" x="56" y="122" width="10" height="10" rx="1"/>
  <text class="label" x="72" y="131">visualizer_agent.py</text>
  <text class="desc" x="260" y="131">Multi-candidate image generation</text>

  <line class="line" x1="30" y1="152" x2="54" y2="152"/>
  <rect class="file" x="56" y="146" width="10" height="10" rx="1"/>
  <text class="label" x="72" y="155">svg_visualizer_agent.py</text>
  <text class="desc" x="260" y="155">SVG code gen + Cairo render + vision critic</text>

  <line class="line" x1="30" y1="176" x2="54" y2="176"/>
  <rect class="file" x="56" y="170" width="10" height="10" rx="1"/>
  <text class="label" x="72" y="179">critic_agent.py</text>
  <text class="desc" x="260" y="179">7-check visual excellence scoring</text>

  <line class="line" x1="30" y1="200" x2="54" y2="200"/>
  <rect class="file" x="56" y="194" width="10" height="10" rx="1"/>
  <text class="label" x="72" y="203">retriever_agent.py</text>
  <text class="desc" x="260" y="203">Reference example retrieval</text>

  <line class="line" x1="30" y1="224" x2="54" y2="224"/>
  <rect class="file" x="56" y="218" width="10" height="10" rx="1"/>
  <text class="label" x="72" y="227">vanilla_agent.py</text>
  <text class="desc" x="260" y="227">Direct generation (baseline)</text>

  <line class="line" x1="30" y1="252" x2="54" y2="252"/>
  <rect class="file" x="56" y="246" width="10" height="10" rx="1"/>
  <text class="label" x="72" y="255">polish_agent.py</text>
  <text class="desc" x="260" y="255">Post-processing refinement</text>

  <!-- mcp_server/ -->
  <rect class="folder" x="24" y="280" width="12" height="12" rx="2"/>
  <text class="label" x="42" y="291">mcp_server/</text>
  <line class="line" x1="30" y1="296" x2="30" y2="316"/>
  <line class="line" x1="30" y1="316" x2="54" y2="316"/>
  <rect class="file" x="56" y="310" width="10" height="10" rx="1"/>
  <text class="label" x="72" y="319">server.py</text>
  <text class="desc" x="260" y="319">MCP server for AI assistant integration</text>

  <!-- Root files -->
  <rect class="file" x="24" y="340" width="10" height="10" rx="1"/>
  <text class="label" x="42" y="349">cli_generate.py</text>
  <text class="desc" x="260" y="349">Headless CLI for single image generation</text>

  <rect class="file" x="24" y="364" width="10" height="10" rx="1"/>
  <text class="label" x="42" y="373">demo.py</text>
  <text class="desc" x="260" y="373">Streamlit web UI</text>

  <rect class="file" x="24" y="388" width="10" height="10" rx="1"/>
  <text class="label" x="42" y="397">main.py</text>
  <text class="desc" x="260" y="397">Batch evaluation runner</text>

  <!-- configs/ -->
  <rect class="folder" x="24" y="420" width="12" height="12" rx="2"/>
  <text class="label" x="42" y="431">configs/</text>
  <line class="line" x1="30" y1="436" x2="30" y2="456"/>
  <line class="line" x1="30" y1="456" x2="54" y2="456"/>
  <rect class="file" x="56" y="450" width="10" height="10" rx="1"/>
  <text class="label" x="72" y="459">model_config.template.yaml</text>

  <!-- data/ -->
  <rect class="folder" x="24" y="480" width="12" height="12" rx="2"/>
  <text class="label" x="42" y="491">data/</text>
  <line class="line" x1="30" y1="496" x2="30" y2="516"/>
  <line class="line" x1="30" y1="516" x2="54" y2="516"/>
  <rect class="folder" x="56" y="510" width="10" height="10" rx="2"/>
  <text class="label" x="72" y="519">PaperBananaBench/</text>
  <text class="desc" x="260" y="519">Reference dataset (download separately)</text>

  <!-- docs/ -->
  <rect class="folder" x="24" y="540" width="12" height="12" rx="2"/>
  <text class="label" x="42" y="551">docs/</text>
  <line class="line" x1="30" y1="556" x2="30" y2="576"/>
  <line class="line" x1="30" y1="576" x2="54" y2="576"/>
  <rect class="folder" x="56" y="570" width="10" height="10" rx="2"/>
  <text class="label" x="72" y="579">comparison/</text>
  <text class="desc" x="260" y="579">Side-by-side comparison images</text>

  <!-- style_guides/ -->
  <rect class="folder" x="24" y="600" width="12" height="12" rx="2"/>
  <text class="label" x="42" y="611">style_guides/</text>
  <text class="desc" x="260" y="611">NeurIPS aesthetic guidelines</text>

  <!-- utils/ -->
  <rect class="folder" x="24" y="628" width="12" height="12" rx="2"/>
  <text class="label" x="42" y="639">utils/</text>
  <line class="line" x1="30" y1="644" x2="30" y2="664"/>
  <line class="line" x1="30" y1="664" x2="54" y2="664"/>
  <rect class="file" x="56" y="658" width="10" height="10" rx="1"/>
  <text class="label" x="72" y="667">paperviz_processor.py</text>
  <text class="desc" x="260" y="667">Main pipeline orchestration</text>
</svg>